<?xml version="1.0" encoding="utf-8"?>
<!-- Generator: Adobe Illustrator 26.0.3, SVG Export Plug-In . SVG Version: 6.00 Build 0)  -->
<svg version="1.1" id="Layer_1" xmlns="http://www.w3.org/2000/svg" xmlns:xlink="http://www.w3.org/1999/xlink" x="0px" y="0px"
	 viewBox="0 0 369.54 367.71" style="enable-background:new 0 0 369.54 367.71;" xml:space="preserve">
<style type="text/css">
	.st0{fill:url(#SVGID_1_);}
	.st1{fill:none;stroke:url(#SVGID_00000173844742710186026700000012964916716682805933_);stroke-width:29;stroke-miterlimit:10;}
</style>
<linearGradient id="SVGID_1_" gradientUnits="userSpaceOnUse" x1="47.6622" y1="198.4876" x2="208.6886" y2="198.4876">
	<stop  offset="0" style="stop-color:#F05123"/>
	<stop  offset="1" style="stop-color:#F8BC29"/>
</linearGradient>
<path class="st0" d="M47.66,234.89c1.01-6.46,7.16-13.29,8.66-9.86c0.54,1.23,6.63-48.04,6.72-48.1c0.18-0.11,1.32,1.12,2.24,2.69
	c0.98,1.66,1.35,3.11,1.42,3.36c1.42,5.35,4.04,10.3,6.05,15.46c2.72,6.98,2.62,5.94,6.87,16.43c3.68,9.08,3.2,8.49,4.33,10.76
	c1.93,3.86,5.28,10.37,12.17,16.36c7.44,6.46,14.97,8.78,17.18,9.41c2.8,0.79,8.19,2.27,15.24,1.49c1.46-0.16,8.06-0.98,15.16-5.08
	c1.71-0.99,2.94-1.87,3.66-2.39c0,0,5.86-4.23,10.46-10.31c2.8-3.71,4.83-7.69,14.12-33.68c1.51-4.22,3.12-8.39,4.65-12.6
	c3.55-9.79,4.94-14.04,5.73-13.88c0.57,0.12,1.17,41.48,1.21,42.77c0.05,1.49,0.08,2.24,0.15,2.67c0.23,1.31,0.49,2.73,1.7,3.6
	c1.1,0.79,2.67,0.89,3.88,0.3c0.3-0.15,1.46-0.77,2.24-3.14c0.69-2.07-1.37-55.18-1.2-55.72c0.37-1.14,1.53-1.14,4.33-2.76
	c2.85-1.66,3.66-2.37,4.18-2.02c0.56,0.38,0.06,6.48,0.3,9.34c0.17,2.1,1.08,60.61,1.49,61.77c0.51,1.43,1.94,3.44,3.88,3.44
	c2.33,0,3.69-2.88,3.88-3.29c1.22-2.57-1.69-86.74-2.32-87.39c-1.4-1.45-4.9-0.21-7.77,0.9c-8.07,3.1-12.11,4.64-14.71,6.42
	c-9.26,6.33-13.91,16.82-17.48,25.1c-5.39,12.52-5.05,18.07-13.15,38.09c-1.7,4.21-4.1,9.85-5.23,9.56
	c-0.81-0.21-0.07-49.13-1.34-51.68c-0.21-0.42-1.45-2.91-3.73-3.14c-1.45-0.15-2.61,0.69-2.69,0.75c-0.81,0.6-1.16,1.37-1.34,1.79
	c-0.47,1.08,1.29,59.23,0.9,60.05c-0.49,1-1.25,1.42-5.75,3.36c-3.83,1.65-4.98,2.07-5.45,1.57c-0.29-0.31-0.7-72.1-1.64-73.49
	c-1.11-1.64-3.72-2.66-5.83-1.79c-1.39,0.57-2.07,1.76-2.24,2.09c-1.19,2.26,1.8,73.31,1.64,73.49c-0.8,0.92-3.5-0.21-6.65-1.57
	c-2.86-1.23-4.3-1.86-4.85-2.76c-0.38-0.61-1-58.74-1.57-59.83c-0.07-0.13-1.23-2.28-3.21-2.46c-0.78-0.07-1.55,0.17-1.94,0.3
	c0,0-0.79,0.26-1.49,0.75c-2.25,1.54,2.64,51.19-0.4,52.08c-0.92,0.27-3.01-3.83-5.65-8.99c-1.81-3.54-2.96-6.35-4.93-11.2
	c-1.97-4.86-3.5-8.78-6.12-15.54c-3.97-10.23-4.41-11.41-5.68-13.89c-1.9-3.73-3.7-7.22-7.02-11.2c-2.08-2.5-5.49-6.52-11.2-9.71
	C55.9,151.52,47.58,235.44,47.66,234.89z"/>
<linearGradient id="SVGID_00000155124760337660754030000000813765275333857420_" gradientUnits="userSpaceOnUse" x1="34.1926" y1="187.3088" x2="326.5874" y2="187.3088">
	<stop  offset="0" style="stop-color:#FFF33B"/>
	<stop  offset="0.0572" style="stop-color:#FFF14A"/>
	<stop  offset="0.1654" style="stop-color:#FBEF59"/>
	<stop  offset="0.2809" style="stop-color:#FAEF5D"/>
	<stop  offset="0.6685" style="stop-color:#F3903F"/>
	<stop  offset="0.8876" style="stop-color:#ED683C"/>
</linearGradient>
<path style="fill:none;stroke:url(#SVGID_00000155124760337660754030000000813765275333857420_);stroke-width:29;stroke-miterlimit:10;" d="
	M183.02,311.64c-35.56-1.37-68.56-17.37-95.56-41.37c-20-19-34-42-38-70c-3-23,3-45,13.71-64.32 M214.84,64.48
	c-53.38-7.21-110.37,11.79-142.76,55.56 M200.85,56.07c-12.69,115.1,51.03,193.87,120,223.59"/>
</svg>
